<mxfile host="app.diagrams.net" modified="2023-10-31T05:14:53.819Z" agent="Mozilla/5.0 (Macintosh; Intel Mac OS X 10_15_7) AppleWebKit/537.36 (KHTML, like Gecko) Chrome/118.0.0.0 Safari/537.36" version="22.0.8" etag="ptm-6gBOGwh0YMW2sZe3" type="github">
  <diagram name="Page-1" id="BPdnJOoYAOLUoe2kHWqz">
    <mxGraphModel>
      <root>
        <mxCell id="0" />
        <mxCell id="1" parent="0" />
      </root>
    </mxGraphModel>
  </diagram>
</mxfile>
